<svg version="1.2" xmlns="http://www.w3.org/2000/svg" viewBox="0 0 960 640" width="960" height="640">
	<style>
		.s0 { fill: #00ff00; } 
		.s1 { fill: none;stroke: #00ff00;stroke-linecap: round;stroke-linejoin: round;stroke-width: 5; } 
	</style>
	<g>
		<path id="Body" class="s1" d="m464 396c0 0-23 23-29 36-6 13-18 45-28 59-9 1-18-4-18-4l-1-5c0 0-44.5-3.5-47-21-1-5 30-1 30-1 0 0 18-60 49-113 1.7-7.5-9.5-57-11-60-4 1.5-50 12.5-95-20-3 2.1-10 5.5-16 7-6 1.5-32.5 2-34-3-1.5-5 22-10 22-10 0 0-25.5 8-26 0-0.5-5.5 28-7 28-7 0 0-22.5 3.5-24-3 0-4.5 32-7.5 35 0-5-5-17.5-13-9-28 3.2 0.3 11 14 11 14 0 0 51 20.5 136-7-5-3.5-35-29.5-13-72-4-5.7-9-14 0-20-3.5-3.5-6.5-16 9-25-8 6.5 3 18 13 8 10-10 16-9.5 22-7 2.5-4.5 12-10 12-10 0 0 9 0 15 8 5.5-1 13 3 13 3 0 0 5.5 12 12 14 6.5 2 21.5 35-3 59 9.5 10 4 22-11 22-2.5 6.5-11 13-11 13 0 0 25 3 50 15 29 12.5 67 3 67 3 0 0 12.5-4.5 19-14 6.5-9.5 18-1.5-5 20 4-4 37-8.5 37-1 0 10-29 7-29 7 0 0 26 1 26 11 0 10-27 0-27 0 0 0 27.5 8 19 15-13 1-26-6-26-6 0 0-9.1 1.2-19 8-9.5 6.5-37 15-85 6-4.5 21-7 58-7 58 0 0 41.5 82 43 123 1 7.5 4 10 4 10 0 0 2 31.5-34 12-3.5-4-4-10-4-10 0 0-25.5-24.5-60-84z"/>
		<path id="Face" fill-rule="evenodd" class="s0" d="m444 149c0 0 6.5-3 9-6-0.2 3 0 6 0 6 0 0-6.8-0.8-9 0zm41 2c0 0 2.7-6.7 5-5 2.3 1.7 7 9.3 7 11 0 1.7-8.5-6.3-12-6zm-19 11c0 0-5 10-9 16 0 2 4 9 4 9 0 0-4 3-6 0-2-3-3-5.7-5-7-2-1.3 16-18 16-18zm-4 53c-5.3 3-11 0-11 0-3.3-3 16.3-3 11 0zm24-9c0 0 0-3.3-1-4-1-0.7-25.7 18-45 0-1.3-0.3-1 2-1 2 0 0-6-5.3-6-7 0-1.7 7-6 7-6 0 0-1.3 3.3 0 4 1.3 0.7 20.3 7.3 39-1 2.3-3 0-5 0-5 0 0 9.7 4.6 10 7 0.7 5.7-3 10-3 10zm-5-9c0 0-17 7.3-41 1 3.7 7.3 34 11.7 41-1zm-34.5-38.9c1.9 0.3 3 3.4 2.5 7-0.6 3.5-2.6 6.1-4.5 5.8-1.9-0.3-3-3.4-2.5-7 0.6-3.5 2.6-6.1 4.5-5.8zm39.5 4c1.6 0.2 2.5 3.1 2 6.4-0.6 3.3-2.3 5.7-4 5.4-1.6-0.2-2.5-3.1-2-6.4 0.6-3.3 2.3-5.7 4-5.4z"/>
	</g>
</svg>